<svg id="Layer_1" data-name="Layer 1" xmlns="http://www.w3.org/2000/svg" viewBox="0 0 1972.78 2612.23">
  <title>gls2</title>
  <path d="M1429.32,2677.18a878.68,878.68,0,0,0,129.34-47.41c82.26-38,156.46-88.25,224.49-147.81,44-38.49,85.85-79.1,122-125.22,36.42-46.44,68.16-96,96.74-147.56,34.33-62,63-126.46,81.69-194.92a1273.81,1273.81,0,0,0,40.72-233.67c5.49-67.62,2.11-134.82-7.7-201.76-7.53-51.41-19.87-101.77-34.79-151.56-34.08-113.82-84.16-219.55-156.2-314.55-38.35-50.57-80.3-97.51-130.46-136.72-128.67-100.56-275.12-154.43-437.54-165.22a811.88,811.88,0,0,0-188.87,9.69A837.2,837.2,0,0,0,1011,862.87c-208.37,78.82-367,216.18-478.34,408.6-10.44,18-19.35,37-29.06,55.42-6.24,11.89-11.84,17.26-11.42.54,1.43-57.26,23.3-114.17,46.51-165.62,23.59-52.29,53.76-100.63,88.72-146a786,786,0,0,1,63.43-72.3A920.19,920.19,0,0,1,869.27,803.1,814.74,814.74,0,0,1,948.59,761c4.81-2.24,9.76-4.67,13.77-8,7.37-6.2,5-17.14-3.87-20.83-4.18-1.73-8.25-1.48-12.54-.37-10.36,2.67-20.81,5-31.15,7.65-63.21,16.44-125.31,36.13-184.92,63.1-119.87,54.22-221.11,134-311.23,228.55-49,51.39-88.27,110.22-124.61,171-39.43,66-71.93,135-93.12,209.07-23.33,81.49-38.95,164.38-44.71,249.11-4.77,70.34-1,140.11,9.68,209.68,6,39.23,15.88,77.52,26.59,115.64,16,56.72,34.53,112.46,59.27,166.06,37.73,81.76,87,155.93,145.69,224.07,26.21,30.46,53,60.37,82.74,87.46,52.48,47.77,110.13,88.41,171.15,124.41,78.76,46.46,162.07,82,251.07,103.74,40.59,9.91,81.78,16.26,123.12,21.94,43.55,6,87.2,10,131.2,8.77,16.06,0,32.12.14,48.18-.07a173.75,173.75,0,0,0,19.19-1.44q19.1-2.38,38.13-5.27c17.45-2.62,35-4.89,52.29-8.26C1353.38,2699.41,1391.27,2688,1429.32,2677.18Zm-213.23-321.27A577.9,577.9,0,0,1,1054.15,2330c-211.24-66.08-409.57-238.32-461.7-458.31-26.18-110.47-29.56-223.79,5.43-332.78,40.94-127.57,119.45-235.54,230.32-311.17,64.17-43.77,135.2-74.45,212.19-86.13,221-33.52,447,55,568.61,245.19,81.42,127.37,116.59,272.34,95.61,422.92a492.75,492.75,0,0,1-23,94,846.41,846.41,0,0,1-37.57,90.35c-11.7,24.12-25,47.3-41.15,68.81a113.35,113.35,0,0,0-11,17.62c-3,6-1,12.1,3.87,15.8,4.11,3.11,9.62,3.21,14.93-.28,4-2.64,7.72-5.77,11.48-8.77,59.66-47.61,108.19-104.91,152.47-166.7,12.3-17.15,24.42-34.44,35.87-52.18,8-12.36,15.27-25.16,23.33-37.48,7.29-11.14,14.19-24.5,25.09-32.63,5.19-3.86,13.93-2.44,14.63,3.93.75,6.81-1.43,14.5-3.93,21.36-11.76,32.22-23.7,67.68-37.74,100.06q-6,13.75-12.59,27.21c-23.14,46.7-49.84,92-81.39,133.5a855.64,855.64,0,0,1-56.82,67.69c-53.57,57.13-114.82,104.22-184.65,140C1410.58,2336,1313,2357.67,1216.09,2355.91Z" transform="translate(-154.17 -110)" fill="#fff"/>
  <path d="M932.88,482.45Q937.64,490,943,497.21c41.17,55.87,94.16,98.74,159.71,122.46a374.51,374.51,0,0,0,54.78,15,490.14,490.14,0,0,0,69.78,8.72c32.35,1.65,64.91,2.42,97.14-1.35,21.78-2.55,55.22-3.42,60.4-30.94,9.88-52.42,8.32-112.06-.89-164.57-15.17-86.46-39.41-170.47-100.56-236.57-52.67-56.95-129.56-90.12-206.23-96.77-34.42-3-69.09-4.32-103.59-2-23.08,1.54-56.49,2.42-65.71,28.78-20.34,58.17-28,122.15-22.84,183.39C889.65,379,903,435,932.88,482.45Z" transform="translate(-154.17 -110)" fill="#fff"/>
</svg>
