<?xml version="1.0" encoding="utf-8"?>
<!-- Generator: Adobe Illustrator 22.1.0, SVG Export Plug-In . SVG Version: 6.00 Build 0)  -->
<svg version="1.1" id="Layer_1" xmlns="http://www.w3.org/2000/svg" xmlns:xlink="http://www.w3.org/1999/xlink" x="0px" y="0px"
	 viewBox="0 0 595.3 841.9" >
<style type="text/css">
	.st0{fill-rule:evenodd;clip-rule:evenodd;fill:#fff;}
	.st1{fill:#fff;}
</style>
<g id="Shape_1">
	<g>
		<path class="st0" d="M513.5,358.8c-1.7-11-4.4-21.8-7.7-32.5c-7.5-24.4-18.6-47.1-34.5-67.5c-8.5-10.8-17.7-20.9-28.8-29.3
			c-28.4-21.6-60.7-33.1-96.6-35.4c-13.9-0.9-27.9-0.2-41.7,2.1c-11.9,1.9-23.5,4.9-34.8,9.1c-46,16.9-81,46.4-105.6,87.7
			c-2.3,3.9-4.3,7.9-6.4,11.9c-1.4,2.5-2.6,3.7-2.5,0.1c0.3-12.3,5.1-24.5,10.3-35.5c5.2-11.2,11.9-21.6,19.6-31.3
			c4.3-5.4,9-10.6,14-15.5c11.8-11.6,25-21.6,39.4-30.1c5.7-3.3,11.5-6.3,17.5-9c1.1-0.5,2.2-1,3-1.7c1.6-1.3,1.1-3.7-0.9-4.5
			c-0.9-0.4-1.8-0.3-2.8-0.1c-2.3,0.6-4.6,1.1-6.9,1.6c-13.9,3.5-27.7,7.8-40.8,13.5c-26.5,11.6-48.8,28.8-68.7,49
			c-10.8,11-19.5,23.6-27.5,36.7c-8.7,14.1-15.9,29-20.5,44.8c-5.1,17.5-8.6,35.3-9.9,53.4c-1.1,15.1-0.2,30.1,2.1,45
			c1.3,8.4,3.5,16.6,5.9,24.8c3.5,12.2,7.6,24.1,13.1,35.6c8.3,17.5,19.2,33.5,32.2,48.1c5.8,6.5,11.7,12.9,18.3,18.8
			c11.6,10.2,24.3,19,37.8,26.7c17.4,10,35.8,17.6,55.4,22.3c9,2.1,18,3.5,27.2,4.7c9.6,1.3,19.2,2.1,29,1.9c3.5,0,7.1,0,10.6,0
			c1.4,0,2.8-0.1,4.2-0.3c2.8-0.3,5.6-0.7,8.4-1.1c3.9-0.6,7.7-1,11.5-1.8c8.6-1.6,16.9-4.1,25.3-6.4c9.8-2.7,19.3-6,28.5-10.2
			c18.2-8.2,34.5-18.9,49.5-31.7c9.7-8.3,18.9-17,26.9-26.9c8-10,15-20.6,21.3-31.7c7.6-13.3,13.9-27.1,18-41.8
			c4.6-16.4,7.6-33.1,9-50.1C516.4,387.6,515.7,373.2,513.5,358.8z M459,411.3c-2.6,6.9-5.2,14.5-8.3,21.5c-0.9,2-1.8,3.9-2.8,5.8
			c-5.1,10-11,19.7-18,28.6c-3.9,5-8.1,9.9-12.5,14.5c-11.8,12.3-25.3,22.4-40.7,30c-18.9,9.4-40.5,14.1-61.9,13.7
			c-12.1-0.2-24.2-2-35.7-5.6c-46.6-14.2-90.4-51.1-101.9-98.3c-5.8-23.7-6.5-48,1.2-71.4c9-27.4,26.4-50.5,50.8-66.8
			c14.2-9.4,29.8-16,46.8-18.5c48.8-7.2,98.6,11.8,125.5,52.6c18,27.3,25.7,58.4,21.1,90.7c-1,6.8-2.7,13.6-5.1,20.2
			c-2.4,6.6-5.1,13.1-8.3,19.4c-2.6,5.2-5.5,10.1-9.1,14.8c-0.9,1.2-1.8,2.5-2.4,3.8c-0.7,1.3-0.2,2.6,0.9,3.4
			c0.9,0.7,2.1,0.7,3.3-0.1c0.9-0.6,1.7-1.2,2.5-1.9c13.2-10.2,23.9-22.5,33.6-35.8c2.7-3.7,5.4-7.4,7.9-11.2c1.8-2.7,3.4-5.4,5.1-8
			c1.6-2.4,3.1-5.3,5.5-7c1.1-0.8,3.1-0.5,3.2,0.8C460,408.2,459.5,409.8,459,411.3z M253.8,123.9c0.7,1.1,1.4,2.1,2.2,3.2
			c8.8,12,20.2,21.2,34.3,26.3c3.8,1.4,7.8,2.4,11.8,3.2c4.9,1,10,1.6,15,1.9c6.9,0.4,13.9,0.5,20.8-0.3c4.7-0.5,11.8-0.7,13-6.6
			c2.1-11.2,1.8-24-0.2-35.3c-3.3-18.5-8.5-36.6-21.6-50.7c-11.3-12.2-27.8-19.3-44.2-20.8c-7.4-0.6-14.8-0.9-22.2-0.4
			c-4.9,0.3-12.1,0.5-14.1,6.2c-4.4,12.5-6,26.2-4.9,39.3C244.6,101.7,247.4,113.7,253.8,123.9z"/>
	</g>
</g>
<g>
	<path class="st1" d="M119,757.4c2.6-0.4,5.7-0.7,9.1-0.7c6.1,0,10.5,1.4,13.4,4.1c2.9,2.7,4.7,6.5,4.7,11.9c0,5.4-1.7,9.8-4.8,12.8
		c-3.1,3.1-8.2,4.8-14.6,4.8c-3,0-5.6-0.1-7.7-0.4V757.4z M123.3,786.6c1.1,0.2,2.6,0.2,4.3,0.2c9.1,0,14.1-5.1,14.1-14
		c0.1-7.8-4.4-12.7-13.4-12.7c-2.2,0-3.9,0.2-5,0.4V786.6z"/>
	<path class="st1" d="M154.1,778.9c0.1,5.8,3.8,8.2,8.1,8.2c3.1,0,4.9-0.5,6.6-1.2l0.7,3.1c-1.5,0.7-4.1,1.5-7.9,1.5
		c-7.3,0-11.7-4.8-11.7-12c0-7.1,4.2-12.8,11.1-12.8c7.7,0,9.8,6.8,9.8,11.2c0,0.9-0.1,1.6-0.1,2H154.1z M166.8,775.8
		c0.1-2.7-1.1-7-6-7c-4.4,0-6.3,4-6.6,7H166.8z"/>
	<path class="st1" d="M176.3,774c0-3-0.1-5.5-0.2-7.7h3.9l0.2,4.1h0.1c1.8-2.9,4.6-4.6,8.4-4.6c5.7,0,10,4.9,10,12.1
		c0,8.5-5.2,12.7-10.8,12.7c-3.1,0-5.9-1.4-7.3-3.7h-0.1v12.9h-4.3V774z M180.5,780.4c0,0.6,0.1,1.2,0.2,1.8c0.8,3,3.4,5,6.5,5
		c4.6,0,7.2-3.7,7.2-9.2c0-4.7-2.5-8.8-7.1-8.8c-2.9,0-5.7,2.1-6.5,5.3c-0.1,0.5-0.3,1.2-0.3,1.8V780.4z"/>
	<path class="st1" d="M217.3,790l-0.3-3h-0.1c-1.3,1.9-3.9,3.5-7.3,3.5c-4.8,0-7.3-3.4-7.3-6.8c0-5.7,5.1-8.9,14.3-8.8v-0.5
		c0-2-0.5-5.5-5.4-5.5c-2.2,0-4.5,0.7-6.2,1.8l-1-2.8c2-1.3,4.8-2.1,7.8-2.1c7.3,0,9,4.9,9,9.7v8.9c0,2.1,0.1,4.1,0.4,5.7H217.3z
		 M216.6,777.9c-4.7-0.1-10,0.7-10,5.3c0,2.8,1.9,4.1,4.1,4.1c3.1,0,5-2,5.7-4c0.1-0.4,0.2-0.9,0.2-1.4V777.9z"/>
	<path class="st1" d="M227.8,773.7c0-2.8-0.1-5.2-0.2-7.4h3.8l0.1,4.7h0.2c1.1-3.2,3.7-5.2,6.6-5.2c0.5,0,0.8,0.1,1.2,0.1v4.1
		c-0.4-0.1-0.9-0.1-1.5-0.1c-3,0-5.2,2.3-5.8,5.5c-0.1,0.6-0.2,1.3-0.2,2V790h-4.3V773.7z"/>
	<path class="st1" d="M250.1,759.5v6.8h6.2v3.3h-6.2v12.8c0,2.9,0.8,4.6,3.2,4.6c1.1,0,2-0.1,2.5-0.3l0.2,3.2
		c-0.8,0.3-2.2,0.6-3.8,0.6c-2,0-3.6-0.6-4.7-1.8c-1.2-1.3-1.7-3.4-1.7-6.2v-12.9h-3.7v-3.3h3.7v-5.7L250.1,759.5z"/>
	<path class="st1" d="M261.2,772.7c0-2.4-0.1-4.5-0.2-6.4h3.8l0.2,3.8h0.1c1.3-2.3,3.5-4.4,7.4-4.4c3.2,0,5.7,2,6.7,4.8h0.1
		c0.7-1.3,1.7-2.4,2.6-3.1c1.4-1.1,3-1.7,5.2-1.7c3.1,0,7.8,2.1,7.8,10.3v14h-4.2v-13.4c0-4.6-1.7-7.3-5.1-7.3
		c-2.5,0-4.4,1.8-5.1,3.9c-0.2,0.6-0.3,1.4-0.3,2.2V790H276v-14.2c0-3.8-1.7-6.5-5-6.5c-2.7,0-4.7,2.2-5.3,4.3
		c-0.2,0.6-0.3,1.4-0.3,2.1V790h-4.2V772.7z"/>
	<path class="st1" d="M304.4,778.9c0.1,5.8,3.8,8.2,8.1,8.2c3.1,0,4.9-0.5,6.6-1.2l0.7,3.1c-1.5,0.7-4.1,1.5-7.9,1.5
		c-7.3,0-11.7-4.8-11.7-12c0-7.1,4.2-12.8,11.1-12.8c7.7,0,9.8,6.8,9.8,11.2c0,0.9-0.1,1.6-0.1,2H304.4z M317.1,775.8
		c0.1-2.7-1.1-7-6-7c-4.4,0-6.3,4-6.6,7H317.1z"/>
	<path class="st1" d="M326.6,772.7c0-2.4-0.1-4.5-0.2-6.4h3.8l0.2,3.9h0.1c1.2-2.3,3.9-4.5,7.8-4.5c3.3,0,8.4,2,8.4,10.1V790h-4.3
		v-13.7c0-3.8-1.4-7-5.5-7c-2.8,0-5,2-5.8,4.4c-0.2,0.5-0.3,1.3-0.3,2V790h-4.3V772.7z"/>
	<path class="st1" d="M358.8,759.5v6.8h6.2v3.3h-6.2v12.8c0,2.9,0.8,4.6,3.2,4.6c1.1,0,2-0.1,2.5-0.3l0.2,3.2
		c-0.8,0.3-2.2,0.6-3.8,0.6c-2,0-3.6-0.6-4.7-1.8c-1.2-1.3-1.7-3.4-1.7-6.2v-12.9h-3.7v-3.3h3.7v-5.7L358.8,759.5z"/>
	<path class="st1" d="M379.6,785.6c1.3,0.8,3.5,1.7,5.7,1.7c3.1,0,4.6-1.6,4.6-3.5c0-2.1-1.2-3.2-4.4-4.4c-4.3-1.5-6.3-3.9-6.3-6.7
		c0-3.8,3.1-7,8.2-7c2.4,0,4.5,0.7,5.8,1.5l-1.1,3.1c-0.9-0.6-2.6-1.4-4.9-1.4c-2.5,0-4,1.5-4,3.2c0,2,1.4,2.8,4.5,4
		c4.1,1.6,6.2,3.6,6.2,7.1c0,4.2-3.2,7.1-8.9,7.1c-2.6,0-5-0.6-6.7-1.6L379.6,785.6z"/>
	<path class="st1" d="M404.8,759.5v6.8h6.2v3.3h-6.2v12.8c0,2.9,0.8,4.6,3.2,4.6c1.1,0,2-0.1,2.5-0.3l0.2,3.2
		c-0.8,0.3-2.2,0.6-3.8,0.6c-2,0-3.6-0.6-4.7-1.8c-1.2-1.3-1.7-3.4-1.7-6.2v-12.9h-3.7v-3.3h3.7v-5.7L404.8,759.5z"/>
	<path class="st1" d="M437,778c0,8.8-6.1,12.6-11.8,12.6c-6.4,0-11.4-4.7-11.4-12.2c0-7.9,5.2-12.6,11.8-12.6
		C432.4,765.7,437,770.7,437,778z M418.2,778.2c0,5.2,3,9.1,7.2,9.1c4.1,0,7.2-3.9,7.2-9.2c0-4-2-9.1-7.1-9.1
		S418.2,773.7,418.2,778.2z"/>
	<path class="st1" d="M442.4,773.7c0-2.8-0.1-5.2-0.2-7.4h3.8l0.1,4.7h0.2c1.1-3.2,3.7-5.2,6.6-5.2c0.5,0,0.8,0.1,1.2,0.1v4.1
		c-0.4-0.1-0.9-0.1-1.5-0.1c-3,0-5.2,2.3-5.8,5.5c-0.1,0.6-0.2,1.3-0.2,2V790h-4.3V773.7z"/>
	<path class="st1" d="M460.3,778.9c0.1,5.8,3.8,8.2,8.1,8.2c3.1,0,4.9-0.5,6.6-1.2l0.7,3.1c-1.5,0.7-4.1,1.5-7.9,1.5
		c-7.3,0-11.7-4.8-11.7-12c0-7.1,4.2-12.8,11.1-12.8c7.7,0,9.8,6.8,9.8,11.2c0,0.9-0.1,1.6-0.1,2H460.3z M473,775.8
		c0.1-2.7-1.1-7-6-7c-4.4,0-6.3,4-6.6,7H473z"/>
</g>
<g>
	<g id="Shape_1_2_">
		<g>
			<path class="st0" d="M472.4,656.7c-13.1-10-26.8-12.3-42.6-7.7c-20.4,5.9-34.5,26.1-32.4,47.8l0,0c2,20.4,17.9,37.3,37.8,40.5
				c16.3,2.6,30.3-1.8,42.1-13.4c2.2-2.1,4.1-4.5,5.6-7.1c1.2-2.1,3.5-5,1.9-8.7c-0.6-1.4-3.6-2.1-4.5-2.1c-4.3-0.2-5.7,3.1-6.3,3.8
				c-1.2,1.5-2.2,2.6-3.5,4c-3.2,3.6-7,6.4-11.4,8.6c-6.7,3.4-13.7,4.5-20.9,3.1c-14.1-2.8-23.8-11.1-27.5-25.1
				c-0.6-2.3-1-4.5-1.1-6.7c-0.1-1.9,0-3.8,0.3-5.7c2-14.3,10.6-23.7,24.3-28.2c7-2.3,14.1-2,21.2,0.5c4.6,1.6,8.7,4,12.3,7.1
				c1.4,1.2,2.4,2.7,3.7,4.1c2.5,2.8,3.9,6.9,5.9,7.9c1.8,0.9,6,1.8,8.4-1.7c0.9-1.3,0.4-5.8-6.1-14.3
				C478.8,662.5,474.8,658.6,472.4,656.7z M545.5,646.3c-25.6,0-46.3,20.7-46.3,46.1s20.7,46.1,46.3,46.1s46.3-20.7,46.3-46.1
				S571.1,646.3,545.5,646.3z M546.1,725.4c-18.6,0-33.8-15-33.8-33.6c0-18.5,15.1-33.6,33.8-33.6c18.6,0,33.8,15,33.8,33.6
				C579.8,710.4,564.7,725.4,546.1,725.4z"/>
		</g>
	</g>
	<g>
		<path class="st1" d="M100,642.4c-1,0.8-1.8,1.6-2.7,2.5c-3.1,3.1-6.2,6.2-9.3,9.3l-9.6,9.6c-0.1,0.2-0.4,0.4-0.5,0.6
			c-1,1.2-7.1,7.3-7.9,8.6c-2.8,4.6-1.2,10.8,3.3,13.7c4.3,2.8,9.3,2.6,12.8-0.1c1.6-1.2,5.1-5.2,7.2-7.2c2.3-2.3,5.6-5.9,7.6-8.2
			c1.5-1.6,2.1-1.9,2.4-0.4c0.7,3.5,0.8,7.1,0.4,10.6c-1.7,16.8-14,30.9-30,35.2c-14.5,3.8-31.8-0.2-42-15.8
			c-9-13.7-8.7-28.2-0.5-42.2c4-6.9,9.9-11.9,17.3-15.1c5.5-2.4,11.2-3.6,17.1-3.7c2.2,0,4.4,0,6.6,0.1c2.6,0.1,4.8-0.6,6.9-2
			c6.6-4.4,6.1-13.7-0.8-17.6c-1.5-0.8-3-1.2-4.7-1.4c-9-1.3-17.7-0.4-26.3,2.3c-15.1,4.8-26.6,14.2-34.6,27.8
			c-17.1,29-6.5,64.7,19,80.7c19.2,12,47.9,13.8,71-5.3c7.5-6.2,13.2-13.9,17-22.8c8.1-19.1,7.2-37.8-3.8-55.7
			c-0.4-0.7-0.9-1.4-1.4-2C110.7,639.3,104.7,638.7,100,642.4z"/>
	</g>
	<g>
		<path class="st1" d="M302.7,691.3c-0.1-7.1-1.7-13.8-5-20.1c-9.9-19.1-31.1-29.2-50.5-25.5c-13.4,2.5-24.4,8.9-31.6,20.6
			c-10,16.1-10.5,32.8-1,49.3c6.6,11.5,17,18.3,29.9,21.1c12.3,2.7,23.9,0.9,34.5-6.1c0.5-0.3,0.9-0.6,1.4-0.9
			c0.7-0.4,1.3-0.3,1.6,0.5c0.2,0.6,0.3,1.3,0.6,2c2,4.2,5.8,6.4,10.2,6.2c4.8-0.2,8.2-3.2,9.5-7.7c0.4-1.5,0.5-2.9,0.5-4.4
			c0-6,0-12,0-18h0C302.7,702.5,302.8,696.9,302.7,691.3z M281,696.2c-2.5,10.7-9.2,17.4-19.8,20.3c-2,0.6-4.1,0.5-6.4,0.6
			c-8.5,0.6-20.6-5.5-24.7-17.9c-3.3-10.2,0.3-21.4,9.3-28c14-10.3,33.8-4.6,40.2,11C281.6,686.8,282.1,691.5,281,696.2z"/>
	</g>
	<g>
		<path class="st1" d="M364.3,682.7c-3.8-1.3-7.6-2.2-11.6-2.6c-3.6-0.4-6.9-1.6-9.9-3.7c-2.5-1.7-3-3.5-1.8-6.4
			c1.4-3.4,4.3-4.9,7.7-5.4c2.1-0.3,4.4-0.4,6.5,0.1c4.7,1,8.7,3.1,10.7,8c0.4,0.9,0.7,1.8,1.2,2.6c2.3,4.4,7.3,6.3,11.9,4.5
			c4.7-1.8,7-6.9,5.4-11.8c-1.2-3.5-2.9-6.8-5.3-9.6c-7.2-8.3-16.5-11.8-27.2-12.2c-4.4-0.1-8.1,0.4-13.6,2.6
			c-9.7,4-15.7,11-17.1,21.7c-0.6,5,0.5,9.5,3.2,13.6c3.9,5.8,9.6,9.3,16,11.5c3.6,1.3,7.3,2.1,11.2,2.5c3.8,0.5,7.4,1.8,10.8,3.7
			c1.6,0.9,2.9,2.1,3.4,3.9c1.1,4-0.4,8.5-3.7,11c-2,1.5-4.2,2.5-6.7,2.8c-2.9,0.4-5.7,0.4-8.6-0.1c-6.3-0.9-10.2-5.5-10.1-11.8
			c0-0.8,0.2-1.6,0.2-2.4c0-2-0.4-3.8-1.5-5.4c-2.3-3.4-6.1-4.9-10.4-4c-4.2,0.9-7,3.8-7.5,8.1c-1.2,10.3,2.1,18.8,9.9,25.6
			c6.5,5.8,14.4,8.1,22.9,8.7c5,0.3,9.9-0.7,14.5-2.4c10.4-3.8,17.6-10.7,20.2-21.9c2-8.5,0-16-6-22.3
			C374.8,687.3,369.8,684.5,364.3,682.7z"/>
	</g>
	<g>
		<path class="st1" d="M193.5,629.7c-0.1-2-0.4-4.1-1.4-5.9c-2.1-3.7-6.5-5.8-10.8-5.1c-4.5,0.7-7.8,3.8-8.6,8.2
			c-0.3,1.5-0.3,3-0.3,4.5c0,13,0,26,0,38.9c0,18.3,0,36.6,0,54.9c0,1.8-0.1,3.6,0.4,5.3c1.2,4.4,5.5,7.6,10.1,7.6
			c4.8,0,9.1-3.4,10.1-8c0.4-1.9,0.5-3.8,0.5-5.7c0-15.3,0-30.6,0-45.9c0-15,0-30.1,0-45.1C193.5,632.2,193.6,631,193.5,629.7z"/>
	</g>
	<g>
		<path class="st1" d="M158.8,657.5c0-1.2,0-2.5-0.1-3.7c-0.7-5.2-4.7-8.9-10-9.1c-5.3-0.2-9.5,3.1-10.6,8.3c-0.3,1.3-0.4,2.7-0.4,4
			c0,22.8,0,45.6,0,68.4c0,1.5,0.1,3,0.5,4.5c1.1,4.9,5.5,8.3,10.4,8.2c4.9-0.2,9-3.4,10-8.2c0.3-1.5,0.3-3,0.3-4.5
			c0-11.3,0-22.6,0-34C158.9,680.2,158.9,668.8,158.8,657.5z"/>
	</g>
	<g>
		<path class="st1" d="M148.2,618.3c-6.7,0.3-12.3,4.7-12.1,12.2c0.2,7.9,6.2,11.9,12.5,11.8c6.8-0.1,12-5.4,11.9-12
			C160.5,623.3,155,618.4,148.2,618.3z"/>
	</g>
</g>
</svg>
