<svg id="Layer_1" data-name="Layer 1" xmlns="http://www.w3.org/2000/svg" viewBox="0 0 5939.17 1218.59">
  <title>gls</title>
  <g>
    <g id="Shape_1" data-name="Shape 1">
      <path d="M4963.63,475.22c-132.41-101.47-270.8-124.43-431.06-78-206,59.69-349.08,264.11-328,483.19l.16,0C4224.63,1086.88,4385.5,1257,4587,1289.63q246.93,40,425.49-135.22a342.53,342.53,0,0,0,56.39-72.26c12.5-21.52,35.68-50.2,19.21-87.85-6-13.77-36.32-21.3-45.78-21.69-43.92-1.84-57.48,31.16-63.85,38.62-12.61,14.77-22.18,26.11-35.17,40.38-32.82,36.07-71.08,64.82-114.77,87-67.24,34.13-138.77,45.22-211.51,31-142.95-28-240.54-112.13-278.1-253.38A347.48,347.48,0,0,1,4328,851.67a343.21,343.21,0,0,1,1-42.23c9.91-115.48,81.49-218.26,182.52-275.06,90.47-50.87,185.93-57.36,278.88-23.74,46.09,16.67,87.58,40.51,124.55,72.25,14.64,12.57,24.66,27.62,37.63,41.9,25.62,28.22,39.19,69.71,59.88,80.32,17.95,9.22,60.77,18.2,85.31-16.8,9.31-13.28,4.26-58.24-61.38-144C5028.46,533.93,4988,493.92,4963.63,475.22Zm739.82-105.69c-258.54,0-468.13,208.75-468.13,466.25S5444.91,1302,5703.45,1302s468.13-208.75,468.13-466.26S5962,369.53,5703.45,369.53Zm5.4,800.26c-188.49,0-341.29-151.95-341.29-339.4S5520.36,491,5708.85,491s341.3,152,341.3,339.4S5897.34,1169.79,5708.85,1169.79Z" transform="translate(-232.42 -85.43)" fill="#fff" fill-rule="evenodd"/>
    </g>
    <path d="M1199.1,330.74c-9.68,7.73-18.49,16.6-27.3,25.34q-47,46.71-93.79,93.72L978.2,549.61,977.08,551c-5.63,7.5-72.75,74.16-81,87.68-28.22,46.51-12.34,109.19,33.28,138.45,43.7,28,94.34,25.9,128.94-.76,16-12.3,51.91-52.84,72.61-72.82,23.58-22.75,56.68-60,77.18-82.69,14.71-16.29,21.17-19.46,24.15-4.2,6.94,35.5,8.11,71.32,4.49,107.22-17.07,169.39-141.31,312.58-303.17,355.5-146.1,38.73-321.18-2.34-424.06-159.62-90.7-138.68-88.12-284.64-5.41-426.85C544.48,423.51,604.23,372.16,679,340c55.23-23.79,112.75-36.65,172.88-37.1q33.12-.24,66.25,1.42c25.06,1.24,47.36-6,67.94-19.27,53.28-34.33,64.15-109.39,21.72-156.46-23-25.51-48-32.87-74.93-36.91-103.79-15.56-205.46-1.31-303.81,36.84A611.56,611.56,0,0,0,405.49,278.7C117,585.24,215.06,1027.61,509.33,1212.37c210.42,132.12,534.82,142,777.68-108.51,37.87-39.07,69.19-84.64,93-133.54,101.45-208.07,99.56-410.54-19.71-604.23-4.33-7-8.76-14.12-14-20.42C1307.23,299,1246.58,292.83,1199.1,330.74Z" transform="translate(-232.42 -85.43)" fill="#fff"/>
    <path d="M3248.66,832.71c-1-63.82-12.58-127.8-38.61-186.07-93.64-209.62-317.6-321.26-522.73-282.87-135.55,25.36-246.53,89.9-319.83,207.85-96.23,154.85-105.22,315.07-23.09,473.54,57.53,111,160.47,194.69,280.68,229.12,137.38,39.35,265.92,24.87,382.9-53,4.59-3.06,9.18-6.15,13.94-8.94,7.57-4.43,13.53-2.82,16.29,4.75,2.35,6.45,3.09,13.57,5.95,19.74,19.72,42.54,58.2,64.2,103.2,62.48,48-1.83,83.28-32.35,96-77.43,4.2-14.87,5.53-29.7,5.49-45q-.21-91.11-.06-182.23h-.05C3248.74,940.69,3249.51,886.68,3248.66,832.71ZM3029,874.87C3003.42,982.65,2935.6,1050.48,2829,1080c-20.31,5.63-41,5-64.2,5.65-86.35,5.62-208.38-55.57-249.23-180.58-33.72-103.22,2.93-216.07,94.29-283.19,141.11-103.66,341.22-46,406.56,110.93C3035.73,779.21,3040.34,826.78,3029,874.87Z" transform="translate(-232.42 -85.43)" fill="#fff"/>
    <path d="M3871.24,737.91a564.3,564.3,0,0,0-116.86-26.32,221.45,221.45,0,0,1-104.81-40.4c-15.91-11.38-22.58-32.92-16.72-51.58,12.79-40.75,44.11-58.43,81-64.13,21.53-3.34,44.76-3.79,66,.57,47.71,9.8,88.28,31.78,107.9,80.55a276.82,276.82,0,0,0,11.76,26.46c23.74,44.77,73.68,63.41,120,45.07,47.1-18.64,71.07-70,54.69-119.2-11.85-35.62-29.07-68.46-53.93-97.09-72.6-83.62-166.54-119.17-274.67-123.1-44.72-.66-82.21,4.05-137.38,26.53-98.3,40.07-159,111.18-172.77,219.06-6.39,50.27,4.66,96.13,32.75,137.55,39.6,58.39,96.65,93.66,162,116.32a535.57,535.57,0,0,0,99.65,24c35.06,5,69.39,14.36,101.75,28.77,43.69,19.45,92.81,48.35,19.73,158.83a9.13,9.13,0,0,1-2,2.2c-20.08,15.12-42.74,25.15-68,28.46a316,316,0,0,1-86.77-.57c-63.9-9.27-103.11-55.28-102.58-119.66.06-8.26,1.72-16.51,1.84-24.77.29-19.75-4.28-38.36-15.24-55-24.24-36.81-67.07-51.48-113.47-38.55-34.59,9.64-65.09,51.18-68.63,86.91-10,100.54,24.13,184.71,100.48,252,66.08,58.23,145.76,82,231.78,87.63,50.37,3.3,99.62-6.62,146.18-23.93,100.28-37.29,171.86-102.87,200.54-207.2,20.63-75,8.37-157.68-39.67-218.91C3992.37,793.24,3935.18,759.44,3871.24,737.91Z" transform="translate(-232.42 -85.43)" fill="#fff"/>
    <path d="M2145,202.63c-1.37-20.68-3.72-41.31-14.23-59.88-21.11-37.33-66.08-58.61-109.14-51.69-45.29,7.27-78.85,38.39-87,82.62-2.74,14.79-2.65,30.23-2.68,45.37q-.29,196.82-.11,393.62,0,277.61,0,555.21c0,17.94-.53,35.89,4.34,53.49,12.28,44.42,55.13,76.79,101.84,76.72,48.71-.09,91.62-34,102.55-80.73,4.46-19,4.75-38.25,4.73-57.62q-.15-232-.05-464.06,0-227.88,0-455.77C2145.2,227.48,2145.81,215,2145,202.63Z" transform="translate(-232.42 -85.43)" fill="#fff"/>
    <path d="M1794.42,483.42c0-12.4.35-24.94-1.28-37.17-8.39-62.72-63.66-102.3-131.25-89-37.7,7.4-66.72,38.24-75.49,75.65a206.89,206.89,0,0,0-5.52,46.56q-.39,345.49-.27,691a198.15,198.15,0,0,0,4.8,45.08c11.36,49.23,55.44,84.11,104.83,82.54s91-34.86,100.92-82.54c3-14.68,3.14-30.13,3.18-45.23q.36-171.72.13-343.42Q1794.47,655.12,1794.42,483.42Z" transform="translate(-232.42 -85.43)" fill="#fff"/>
    <path d="M1687.05,87.07c-67.74,2.68-124.07,47.53-122.53,123.79,1.63,80.22,62.24,120.12,126.63,119.48,68.5-.67,120.83-54.19,120.51-121.48C1811.32,137.14,1755.75,87.57,1687.05,87.07Z" transform="translate(-232.42 -85.43)" fill="#fff"/>
  </g>
</svg>
