<?xml version="1.0" encoding="utf-8"?>
<!-- Generator: Adobe Illustrator 22.1.0, SVG Export Plug-In . SVG Version: 6.00 Build 0)  -->
<svg version="1.1" id="Layer_1" xmlns="http://www.w3.org/2000/svg" xmlns:xlink="http://www.w3.org/1999/xlink" x="0px" y="0px"
	 viewBox="0 0 1417.3 1417.3" style="enable-background:new 0 0 1417.3 1417.3;" xml:space="preserve">
<style type="text/css">
	.st1{fill:#32325d;}
</style>
<g id="Layer_2_1_">
	<g>
		<g>
			<g>
				<path class="st1" d="M1067.5,831.6l-31-197.9c-8.8-56.1-57.2-97.4-114-97.4h-66.3v-88.4c0-79.6-64.8-144.4-144.4-144.4h-0.2
					c-79.6,0-144.4,64.8-144.4,144.4v88.4h-66.3c-56.8,0-105.2,41.4-114,97.4l-31,197.9c-5.2,33.3,4.4,67.1,26.3,92.7
					c21.9,25.6,53.9,40.4,87.7,40.4h483.5c33.8,0,65.7-14.7,87.7-40.4C1063.1,898.6,1072.7,864.9,1067.5,831.6z M623.1,447.8
					c0-48.9,39.7-88.6,88.6-88.6h0.2c48.9,0,88.6,39.7,88.6,88.6v88.4H623.1V447.8z M998.8,888c-11.3,13.2-27.8,20.8-45.3,20.8H470
					c-17.4,0-33.9-7.6-45.3-20.8c-11.3-13.2-16.2-30.6-13.6-47.8l31-197.9c4.6-29.1,29.3-50.3,58.8-50.3c44.2,0,378.1,0,421.6,0
					c29.5,0,54.3,21.1,58.8,50.3l31,197.9C1015,857.4,1010.1,874.8,998.8,888z"/>
				<path class="st1" d="M857.5,649.8c-15.4,0-27.9,12.5-27.9,27.9c0,64.9-52.9,117.6-117.8,117.6c-65,0-117.8-52.8-117.8-117.6
					c0-15.4-12.5-27.9-27.9-27.9s-27.9,12.5-27.9,27.9c0,95.6,77.9,173.4,173.6,173.4s173.6-77.8,173.6-173.4
					C885.4,662.2,872.9,649.8,857.5,649.8z"/>
			</g>
		</g>
	</g>
</g>
</svg>
