<?xml version="1.0" encoding="utf-8"?>
<!-- Generator: Adobe Illustrator 22.1.0, SVG Export Plug-In . SVG Version: 6.00 Build 0)  -->
<svg version="1.1" xmlns="http://www.w3.org/2000/svg" xmlns:xlink="http://www.w3.org/1999/xlink" x="0px" y="0px"
	 viewBox="0 0 1417.3 1417.3" style="enable-background:new 0 0 1417.3 1417.3;" xml:space="preserve">
<style type="text/css">
	.st1{fill:#32325d;}
</style>
<g id="Layer_2">
	<g>
		<path class="st1" d="M1020.4,750.1c-0.8-0.5-2.7-0.9-3.5-1.3L724.6,619.6v-42c55.6-6.7,83-43.4,83-90.5
			c0-52.2-36.7-91.6-86.3-91.6c-52,0-95.6,42.8-95.6,93.6c0,8.7,7.2,15.8,16,15.8c2.6,0,5-0.8,7.2-1.9c5.1-2.6,8.8-7.8,8.8-13.9
			c0-33,30-61.9,64.3-61.9c32,0,55.2,25.2,55.2,60c0,34.2-27.6,60-65.3,60c-8.7,0-15.1,7.1-15.1,15.8v30.9v31c0,0.3-0.6,0.6-0.6,0.9
			L416,758.1c-41.3,14.9-55.5,48.8-51,74.6c4.6,26.6,27.2,43.7,56.4,43.7H978c34.6,0,61.7-17.9,70.8-47.9
			C1057.7,799,1046,767.2,1020.4,750.1z M1018.5,821.3c-5,16.6-19.8,27.3-40.5,27.3H421.5c-14.1,0-23.4-7.8-25.4-19.4
			c-2.3-13.2,6.2-32,31.7-41.3l290-137.5l286.1,127.4C1017.3,787.4,1023.3,805.4,1018.5,821.3z"/>
	</g>
</g>
</svg>
