<?xml version="1.0" encoding="utf-8"?>
<!-- Generator: Adobe Illustrator 22.1.0, SVG Export Plug-In . SVG Version: 6.00 Build 0)  -->
<svg version="1.1" xmlns="http://www.w3.org/2000/svg" xmlns:xlink="http://www.w3.org/1999/xlink" x="0px" y="0px"
	 viewBox="0 0 1417.3 1417.3" style="enable-background:new 0 0 1417.3 1417.3;" xml:space="preserve">
<style type="text/css">
	
	.st1{fill:#32325d;}
</style>
<g id="Layer_2">
	<path class="st1" d="M722.9,632.6h-10h-29.1V331.1c0-41.3-33.5-74.8-74.8-74.8h-20c-41.3,0-74.8,33.5-74.8,74.8v301.5h-29.1h-10
		c-30,0-54.4,24.4-54.4,54.4v90c0,1.3,0.1,2.7,0.3,4v152.3c0,35.3,28.7,64,64,64h227.8c35.3,0,64-28.7,64-64V780.9
		c0.2-1.3,0.3-2.6,0.3-4v-90C777.2,657,752.9,632.6,722.9,632.6z M748.1,777c0,0.4-0.3,0.8-0.7,0.8H450.7c-0.4,0-0.7-0.3-0.7-0.8
		v-90c0-13.9,11.3-25.2,25.2-25.2h247.7c13.9,0,25.2,11.3,25.2,25.2V777z M877.4,342.1c-6.2-10.7,1.5-24.1,13.9-24.1h67.5
		c12.4,0,20.1,13.4,13.9,24.1l-28.4,49.2c-1.3,2.2-2.9,4.1-4.7,5.6v204.5h-29.2V397c-1.8-1.6-3.4-3.4-4.7-5.6L877.4,342.1z
		 M995.2,658.4v279.3c0,33.2-27,60.2-60.2,60.2h-20c-33.2,0-60.2-27-60.2-60.2V658.4c0-15.3,12.4-27.7,27.7-27.7h84.9
		C982.8,630.7,995.2,643.1,995.2,658.4z"/>
</g>
</svg>
