<?xml version="1.0" encoding="utf-8"?>
<!-- Generator: Adobe Illustrator 22.1.0, SVG Export Plug-In . SVG Version: 6.00 Build 0)  -->
<svg version="1.1" xmlns="http://www.w3.org/2000/svg" xmlns:xlink="http://www.w3.org/1999/xlink" x="0px" y="0px"
	 viewBox="0 0 1417.3 1417.3" style="enable-background:new 0 0 1417.3 1417.3;" xml:space="preserve">
<style type="text/css">
	.st1{fill:#32325d;}
</style>
<g id="Layer_2">
	<g>
		<g id="Layer_1_144_">
			<g>
				<path class="st1" d="M679.8,890.2c9.3,1.6,18.7,1.6,29.6,1.6s21.8,0,32.7-1.6l4.7-152.6c-9.3-4.7-18.7-10.9-26.5-18.7
					c-14-15.6-21.8-35.8-20.2-57.6l7.8-104.3c-9.3,12.5-21.8,21.8-37.4,28L679.8,890.2z"/>
				<path class="st1" d="M902.6,346.6v67c63.9,54.5,104.3,135.5,104.3,225.8c0,90.3-40.5,171.3-104.3,225.8v67
					c95-62.3,157.3-169.8,157.3-292.8C1059.9,516.4,997.6,408.9,902.6,346.6z"/>
				<path class="st1" d="M720.3,323.3v17.1c1.6,0,3.1,0,6.2,0c6.2-20.2,18.7-37.4,35.8-49.8c-17.1-3.1-35.8-4.7-53-4.7
					c-1.6,0-4.7,0-6.2,0C712.6,296.8,720.3,309.3,720.3,323.3z"/>
				<path class="st1" d="M902.6,477.5v28v207.1v87.2c37.4-43.6,59.2-99.7,59.2-162C960.2,578.7,939.9,521.1,902.6,477.5z"/>
				<path class="st1" d="M485.2,521.1c-18.7,35.8-29.6,74.8-29.6,116.8c0,67,26.5,127.7,68.5,172.9l7.8-228.9
					C507,574,488.3,550.7,485.2,521.1z"/>
				<path class="st1" d="M739,940v-4.7c-10.9,1.6-20.2,1.6-31.1,1.6c-9.3,0-18.7,0-28-1.6v4.7c0,17.1-6.2,34.3-17.1,46.7
					c14,1.6,29.6,3.1,43.6,3.1c15.6,0,31.1-1.6,46.7-3.1C745.3,974.3,739,957.1,739,940z"/>
				<path class="st1" d="M410.4,639.4c0-74.8,28-144.8,74.8-196.2v-74.8c-77.9,63.9-127.7,162-127.7,271
					c0,124.6,65.4,235.2,163.5,297.5l1.6-63.9C455.6,818.5,410.4,732.9,410.4,639.4z"/>
				<path class="st1" d="M829.4,299.9L829.4,299.9c-40.5,0-74.8,31.1-77.9,71.6l-20.2,291.2c-1.6,12.5,3.1,24.9,12.5,34.3
					c9.3,9.3,20.2,15.6,34.3,15.6h1.6l-7.8,228.9c0,9.3,3.1,18.7,10.9,26.5c6.2,7.8,15.6,10.9,26.5,10.9h26.5
					c20.2,0,35.8-17.1,35.8-35.8V712.6V505.5V342C871.4,318.6,852.7,299.9,829.4,299.9z"/>
				<path class="st1" d="M639.4,556.9h7.8c23.4,0,43.6-18.7,43.6-42V323.3c0-7.8-6.2-14-14-14h-3.1c-7.8,0-12.5,6.2-12.5,14v126.1
					c0,10.9-9.3,20.2-20.2,20.2h-3.1c-10.9,0-20.2-9.3-20.2-20.2V323.3c0-7.8-6.2-14-12.5-14H602c-7.8,0-14,6.2-14,14v126.1
					c0,10.9-9.3,20.2-20.2,20.2h-3.1c-10.9,0-20.2-9.3-20.2-20.2V323.3c0-7.8-6.2-14-12.5-14h-3.1c-7.8,0-12.5,6.2-12.5,14v191.6
					c0,23.4,18.7,42,42,42h6.2l-12.5,384.7c0,9.3,3.1,18.7,9.3,26.5c6.2,6.2,15.6,10.9,24.9,10.9h28c9.3,0,18.7-4.7,24.9-10.9
					c6.2-6.2,10.9-17.1,9.3-26.5L639.4,556.9z"/>
			</g>
		</g>
	</g>
</g>
</svg>
