<?xml version="1.0" encoding="utf-8"?>
<!-- Generator: Adobe Illustrator 22.1.0, SVG Export Plug-In . SVG Version: 6.00 Build 0)  -->
<svg version="1.1" xmlns="http://www.w3.org/2000/svg" xmlns:xlink="http://www.w3.org/1999/xlink" x="0px" y="0px"
	 viewBox="0 0 1417.3 1417.3" style="enable-background:new 0 0 1417.3 1417.3;" xml:space="preserve">
<style type="text/css">
	.st1{fill:#32325d;}
</style>
<g id="Layer_1">
	<path class="st1" d="M634.7,1006.6c-33,0-77.7-8.9-134.1-39.6c-27.4-14.9-40.6-35.3-39.2-60.4c5.1-87.3,200.7-184.8,258.8-208.1
		c33.6-13.5,88.3,7.4,151.1,0c77.2-9.1,175.8-67.3,189.2-92.2l16.3,8.8c-17.9,33.3-111.5,86-205.4,97.2c-58.8,7-110.8-12-142.1,0.6
		C658.4,741.3,484,837.2,479.9,907.7c-1,17.6,8.6,31.7,29.5,43.1c121.8,66.3,182.7,24.1,183.3,23.6l10.8,15
		C701.9,990.5,678.8,1006.6,634.7,1006.6z"/>
	<path class="st1" d="M508.8,988.4c-3.8-3.8-92.5-93.4-86.5-166.6c1.9-23.4,13.1-42.6,33.2-57.1c38.2-27.4,114.8-53.6,199.8-47.1
		c124.3,9.5,276,53.1,361.5-40.8c63.6-69.8,79.2-176.9,41.9-286.3c-33.9-99.4-104.4-174.6-175.3-187.1c-13.5-2.4-23.8,0.1-31.5,7.5
		c-21.2,20.6-18.4,74.8-15.6,93.9l-18.3,2.7c-0.5-3.2-11.3-78.6,21-109.9c12-11.7,28-15.9,47.6-12.5c78.6,13.9,153,92.1,189.5,199.4
		c39.6,115.9,22.5,229.9-45.7,304.8c-91.6,100.6-246.8,48.9-375.2,39.1c-81.4-6.2-156.2,27.8-189,51.4
		c-15.8,11.3-24.1,25.6-25.6,43.6c-5.3,64.8,80.3,151.2,81.2,152.1L508.8,988.4z"/>
	<g>
		<path class="st1" d="M867.5,332.9h-306c-17,0-30.8,13.8-30.8,30.8v529.9c0,17,13.8,30.8,30.8,30.8h306c17,0,30.8-13.8,30.8-30.8
			V363.7C898.3,346.7,884.6,332.9,867.5,332.9z M714.5,873.5c-37.9,0-68.5-30.7-68.5-68.5c0-37.9,30.7-68.5,68.5-68.5
			c37.9,0,68.5,30.7,68.5,68.5C783.1,842.8,752.4,873.5,714.5,873.5z M853.2,663.5c0,17-13.8,30.8-30.8,30.8H606.7
			c-17,0-30.8-13.8-30.8-30.8V415c0-17,13.8-30.8,30.8-30.8h215.6c17,0,30.8,13.8,30.8,30.8V663.5z"/>
		<path class="st1" d="M758.1,805c0,24.1-19.5,43.6-43.6,43.6c-24.1,0-43.6-19.5-43.6-43.6c0-24.1,19.5-43.6,43.6-43.6
			C738.6,761.4,758.1,780.9,758.1,805z"/>
	</g>
	<path class="st1" d="M711.5,641.6c-0.1,0-0.2,0-0.3,0c-4.7-0.1-8.6-3.9-8.8-8.7l-3.3-73.9l-5.5,52.1c-0.5,4.6-4.4,8.1-9,8.1
		c-0.1,0-0.1,0-0.2,0c-4.7-0.1-8.6-3.7-8.9-8.4l-4.3-61.8l-6.6,45.5c-0.6,4.5-4.5,7.8-9,7.8c0,0,0,0,0,0c-4.5,0-8.3-3.3-9-7.8
		l-1.9-13.3l-7.1,47.5c-0.7,4.6-4.7,8-9.3,7.7c-4.6-0.2-8.4-3.8-8.7-8.4l-4.9-71.7l-2.6,10.1c-1,4-4.6,6.8-8.8,6.8l0,0l-27.2,0
		v-18.1l20.2,0l14.8-57.7c1.1-4.3,5.2-7.1,9.6-6.8c4.4,0.4,7.9,4,8.2,8.4l3.1,44.4l4-26.6c0.7-4.4,4.5-7.7,9-7.7c0,0,0,0,0,0
		c4.5,0,8.3,3.3,8.9,7.8l1.8,12.5l9.7-66.8c0.7-4.6,4.8-8,9.3-7.7c4.6,0.2,8.4,3.8,8.7,8.4l3,43.2l7.3-69.1c0.5-4.7,4.7-8.3,9.3-8.1
		c4.7,0.1,8.6,3.9,8.8,8.7l3.2,73.1l6.1-57.7c0.5-4.6,4.4-8.1,9-8.1c0,0,0.1,0,0.1,0c4.7,0,8.5,3.6,9,8.3l4.6,52.8l3.8-28
		c0.6-4.5,4.4-7.8,8.9-7.9c0,0,0.1,0,0.1,0c4.5,0,8.3,3.3,9,7.7l6,39.9l5.8-22.6c1.1-4.2,5.1-7.2,9.4-6.8c4.4,0.3,7.9,3.7,8.4,8.1
		l3.2,30.4l8-84.6c0.4-4.6,4.3-8.2,8.9-8.2c4.8,0,8.6,3.4,9.1,8l13.4,113.1l15.6,0.1l-0.1,18.1l-23.6-0.1c-4.6,0-8.4-3.4-9-8
		l-4.3-36.4l-8.5,89.8c-0.4,4.6-4.3,8.2-9,8.2c-4.7,0.1-8.6-3.5-9.1-8.1l-7.5-70.5l-4.4,17.1c-1.1,4.2-5.1,7-9.2,6.8
		c-4.3-0.2-7.9-3.4-8.5-7.7l-3.2-21.1l-6.2,46.3c-0.6,4.6-4.5,8-9.2,7.9c-4.6-0.1-8.4-3.7-8.8-8.3l-3.5-40.7l-8.9,84.4
		C720.1,638.1,716.2,641.6,711.5,641.6z"/>
	<path class="st1" d="M844.3,343.5c0,9.5-7.7,17.1-17.1,17.1l0,0c-9.5,0-17.1-7.7-17.1-17.1V310c0-9.5,7.7-17.2,17.1-17.2l0,0
		c9.5,0,17.1,7.7,17.1,17.2V343.5z"/>
	<g>
		<path class="st1" d="M571.4,981.9c0,27.9-22.6,50.6-50.6,50.6c-27.9,0-50.6-22.6-50.6-50.6c0-27.9,22.6-50.6,50.6-50.6
			C548.8,931.3,571.4,954,571.4,981.9z"/>
		<path class="st1" d="M548.8,981.9c0,15.4-12.5,27.9-27.9,27.9c-15.4,0-27.9-12.5-27.9-27.9s12.5-27.9,27.9-27.9
			C536.3,953.9,548.8,966.4,548.8,981.9z"/>
	</g>
	<g>
		<path class="st1" d="M743.7,986.8c0,27.9-22.6,50.6-50.6,50.6c-27.9,0-50.6-22.6-50.6-50.6c0-27.9,22.6-50.6,50.6-50.6
			C721,936.2,743.7,958.9,743.7,986.8z"/>
		<path class="st1" d="M721.1,986.8c0,15.4-12.5,27.9-27.9,27.9c-15.4,0-27.9-12.5-27.9-27.9s12.5-27.9,27.9-27.9
			C708.6,958.9,721.1,971.4,721.1,986.8z"/>
	</g>
</g>
</svg>
