<?xml version="1.0" encoding="utf-8"?>
<!-- Generator: Adobe Illustrator 22.1.0, SVG Export Plug-In . SVG Version: 6.00 Build 0)  -->
<svg version="1.1" id="Layer_1" xmlns="http://www.w3.org/2000/svg" xmlns:xlink="http://www.w3.org/1999/xlink" x="0px" y="0px"
	 viewBox="0 0 1417.3 1417.3" style="enable-background:new 0 0 1417.3 1417.3;" xml:space="preserve">
<style type="text/css">
	.st1{fill:#32325d;;}
</style>

<path class="st1" d="M310.7,596.5L351,707.1l50.2-18.1v274.9c0,39,31.4,70.7,70.3,70.7c6.9,0,456.4,0,471,0
	c39,0,70.7-31.7,70.7-70.7V607.5c-15.1,0-388.4,0-388.4,0l390.2-142l-40.3-110.7c-13.3-36.6-53.9-55.6-90.6-42.2l-74,27
	c0.1-0.7,0.2-1.4,0.3-2.2c4.9-34.1-9.4-67.1-38.2-88.2c-27.2-19.9-62.1-24.1-93.2-11.1c-31.1,13-52.7,40.7-57.7,73.9l-10.6,68.2
	l-54.7-48.4c-25.3-22.3-59.6-29.7-91.8-19.6c-70.9,22.2-90.3,113-35.3,162.3c1,0.9,2,1.7,3,2.6l-78.9,28.7
	C316.2,519.3,297.3,559.8,310.7,596.5z M966.4,654.6v309.3c0,13-10.9,23.6-23.9,23.6H777.6V654.6H966.4z M730.8,654.6v332.9h-47.4
	V654.6H730.8z M636.6,987.5H471.5c-13,0-23.6-10.6-23.6-23.6V671.9l47.4-17.2h141.4V987.5z M644.7,550.1l-32.2-88.5l44.3-16.1
	L689,534C673.5,539.6,660.2,544.5,644.7,550.1z M900.2,356.9c12.2-4.4,25.7,1.9,30.2,14.1l24.2,66.4l-221.3,80.5L701,429.4
	L900.2,356.9z M697.1,281.6c15.6-6.5,33.3-4.6,47.3,5.6c31.6,23.1,24.1,67.5-12,80.6c-6,2.2-45.5,16.6-47.4,17.2l-29,10.5l11.9-76.5
	C670.3,302.2,681.3,288.2,697.1,281.6z M460.3,439.6c-28.3-25.4-17.5-71.2,17.9-82.3c16.1-5,33.6-1.5,46.5,9.9l61,54
	c-17.7,6.4-59.6,21.7-76.6,27.9C492.1,455.3,473.8,451.7,460.3,439.6z M369,550.2l199.2-72.5l32.2,88.5l-221.3,80.6L355,580.4
	C350.5,568.2,356.8,554.7,369,550.2z"/>
</svg>
