<?xml version="1.0" encoding="utf-8"?>
<!-- Generator: Adobe Illustrator 22.1.0, SVG Export Plug-In . SVG Version: 6.00 Build 0)  -->
<svg version="1.1" xmlns="http://www.w3.org/2000/svg" xmlns:xlink="http://www.w3.org/1999/xlink" x="0px" y="0px"
	 viewBox="0 0 1417.3 1417.3" style="enable-background:new 0 0 1417.3 1417.3;" xml:space="preserve">
<style type="text/css">
	.st1{fill:#32325d;}
</style>
<g id="Layer_2">
	<g>
		<g>
			<path class="st1" d="M353.1,845c27.1,52.2,81.7,88,144.4,88s117.3-35.8,144.4-88H353.1z"/>
		</g>
	</g>
	<g>
		<g>
			<path class="st1" d="M775.3,845c27.1,52.2,81.7,88,144.4,88s117.3-35.8,144.4-88H775.3z"/>
		</g>
	</g>
	<g>
		<g>
			<path class="st1" d="M1079.4,739.4H775.7c-40.5-26.8-93.5-26.8-134,0H337.9c-1.9,10-3,20.3-3,30.9c0,10.6,1,20.9,3,30.9h319.3
				c1.3-6.8,2.2-13.8,2.6-20.9c28.4-23,69.2-23,97.6,0c0.4,7.1,1.3,14.1,2.6,20.9h319.3c1.9-10,3-20.3,3-30.9
				C1082.4,759.8,1081.4,749.4,1079.4,739.4z"/>
		</g>
	</g>
	<g>
		<g>
			<path class="st1" d="M497.6,608.6c-46.9,0-89.1,19.9-118.9,51.8v-241c0-46.6,37.9-84.5,84.5-84.5c46.6,0,84.5,37.9,84.5,84.5
				h43.8c0-70.8-57.6-128.3-128.3-128.3c-70.8,0-128.3,57.6-128.3,128.3v277.2H642C614.9,644.4,560.3,608.6,497.6,608.6z"/>
		</g>
	</g>
	<g>
		<g>
			<path class="st1" d="M954.1,291c-70.8,0-128.3,57.6-128.3,128.3h43.8c0-46.6,37.9-84.5,84.5-84.5c46.6,0,84.5,37.9,84.5,84.5v241
				c-29.7-31.8-72-51.8-118.9-51.8c-62.8,0-117.3,35.8-144.4,88h307.1V419.4C1082.4,348.6,1024.8,291,954.1,291z"/>
		</g>
	</g>
</g>
</svg>
