<?xml version="1.0" encoding="utf-8"?>
<!-- Generator: Adobe Illustrator 22.1.0, SVG Export Plug-In . SVG Version: 6.00 Build 0)  -->
<svg version="1.1" xmlns="http://www.w3.org/2000/svg" xmlns:xlink="http://www.w3.org/1999/xlink" x="0px" y="0px"
	 viewBox="0 0 1417.3 1417.3" style="enable-background:new 0 0 1417.3 1417.3;" xml:space="preserve">
<style type="text/css">
	.st1{fill:#32325d;}
</style>
<g id="Layer_2">
	<g>
		<path class="st1" d="M724.8,391.8c0-8.9-7.2-16.1-16.1-16.1c-8.9,0-16.1,7.2-16.1,16.1c0,8.9,7.2,16.1,16.1,16.1
			C717.5,407.9,724.8,400.7,724.8,391.8z"/>
		<path class="st1" d="M808.3,570.9v-69.5c0-8.5-6.9-15.3-15.3-15.3h-15.3V329.7c0-8.5-6.9-15.3-15.3-15.3H655
			c-8.5,0-15.3,6.9-15.3,15.3V486h-15.3c-8.5,0-15.3,6.9-15.3,15.3v69.5c-74.8,37.5-122.6,114.5-122.6,198.7
			c0,122.5,99.7,222.2,222.2,222.2S930.9,892,930.9,769.5C930.9,685.3,883.1,608.4,808.3,570.9z M670.4,345H747v141h-76.6V345z
			 M708.7,961.1c-105.6,0-191.5-85.9-191.5-191.5c0-75.5,44.6-144.2,113.5-175c5.5-2.5,9.1-7.9,9.1-14v-63.9h53.6v176.2H576.6
			c-6,0-11.4,3.5-13.9,8.8c-9.9,21.3-15,44.1-15,67.8c0,88.7,72.2,160.9,160.9,160.9c33.1,0,64.9-10,92-29
			c26.5-18.5,46.6-44.1,58.1-74.1c3-7.9-0.9-16.8-8.8-19.8c-7.9-3-16.8,0.9-19.8,8.8c-19.3,49.9-68.1,83.5-121.6,83.5
			c-71.8,0-130.3-58.4-130.3-130.3c0-15.9,2.8-31.3,8.4-46h106.5v130.3c0,8.5,6.9,15.3,15.3,15.3c8.5,0,15.3-6.9,15.3-15.3V723.5
			h106.5c5.6,14.7,8.4,30.1,8.4,46c0,8.5,6.9,15.3,15.3,15.3s15.3-6.9,15.3-15.3c0-23.6-5-46.4-15-67.8c-2.5-5.4-7.9-8.8-13.9-8.8
			H724V516.7h53.6v63.9c0,6,3.6,11.5,9.1,14c69,30.8,113.5,99.5,113.5,175C900.2,875.1,814.3,961.1,708.7,961.1z"/>
	</g>
</g>
</svg>
