<?xml version="1.0" encoding="utf-8"?>
<!-- Generator: Adobe Illustrator 22.1.0, SVG Export Plug-In . SVG Version: 6.00 Build 0)  -->
<svg version="1.1" xmlns="http://www.w3.org/2000/svg" xmlns:xlink="http://www.w3.org/1999/xlink" x="0px" y="0px"
	 viewBox="0 0 1417.3 1417.3" style="enable-background:new 0 0 1417.3 1417.3;" xml:space="preserve">
<style type="text/css">
	.st1{fill:#32325d;}
</style>
<g id="Layer_2">
	<g>
		<g>
			<path class="st1" d="M528.2,957.8c0,0,22.3-24.3,43.1-24.9c20.8-0.6,123.9,45.5,229.5,37.6c105.6-7.9,198.8-40.6,255.7-81.6
				c0,0,7.3-11.1,2.4-32.7l-4.8,0.3c-14.3,10.5-133.8,94-284.7,88.8c-10.7-0.4-21.5-1.2-32.1-2.5c-72.6-8.7-111.3-19.6-134.4-26.1
				c-12.5-3.5-20.7-5.8-27.5-6c-8.7-0.3-16.9,2.9-34.9,13.7l-3.4,2l-3.9-0.4L361,908.4c-3.5,11-6.6,26.9-0.1,37.4
				C371.6,963.1,528.2,957.8,528.2,957.8z"/>
			<path class="st1" d="M365.4,896.9l169.1,17.5c19.4-11.7,29.6-15.8,41.4-15.4c22.8,0.8,51.1,18.7,162.9,32.2
				c10.5,1.3,20.8,2,31.1,2.4c120.5,4.2,221.8-50.9,261.1-75.6c11.3-7.1,17.5-11.8,17.5-11.8s-26.2-32.4-95.6-34.8
				c-31.6-1.1-58.3-0.8-78.9-1.5c-24.7-0.9-40.4-3.2-44.9-11.3c-8.2-14.8-64.6-33.7-64.6-33.7c-16.4-39.9-93.3-47.3-130.1-48.6
				c-12-0.4-19.7-0.2-19.7-0.2l-1.4,39.9c-29.3,21.6-62.8,28-94.4,26.9c-63.2-2.2-118.9-34.2-118.9-34.2
				c-58.9,52.5-41.1,147.6-41.1,147.6L365.4,896.9z M652.5,796.2l26.2-41.2c1.8-2.9,4.7-4.9,8.1-5.7c3.3-0.8,6.8-0.1,9.7,1.7
				l16.9,10.7c1.9-1.9,4.9-2.4,7.3-0.9c2.4,1.5,3.2,4.4,2.3,7l16.9,10.7c6,3.8,7.8,11.8,3.9,17.8l-26.2,41.2
				c-1.8,2.9-4.7,4.9-8.1,5.7c-1.1,0.2-2.2,0.3-3.3,0.3c-2.3-0.1-4.5-0.8-6.4-2l3.2-5l3.2-5c0.4,0.3,1.2,0.1,1.5-0.3l26.2-41.2
				c0.3-0.5,0.2-1.2-0.3-1.5l-16.7-10.6l-11.2,17.6c-1.2,1.8-3.2,2.8-5.2,2.7c-1,0-2-0.3-3-0.9c-2.8-1.8-3.6-5.4-1.8-8.2l11.2-17.6
				L690.1,761l-1.5,0.3l-26.2,41.2c-0.3,0.5-0.2,1.2,0.3,1.5l-3.2,5l-3.2,5C650.5,810.1,648.7,802.2,652.5,796.2z"/>
		</g>
	</g>
	<g>
		<g>
			<path class="st1" d="M506.2,479.8c0,0,32.6-4.9,49.2,7.7C572,500.1,623.2,600.8,710.2,661c87.1,60.2,180.2,93.3,250.1,97.2
				c0,0,12.7-4,22.4-23.9l-3.9-2.8c-17.7-0.9-163.2-11-277.3-109.8c-8.1-7-16-14.5-23.4-22.1c-51-52.4-74.3-85.2-88.2-104.7
				c-7.5-10.6-12.5-17.5-17.6-22c-6.6-5.7-15-8.3-35.8-11.2l-3.9-0.5l-2.8-2.8L407.2,336.3c-9.6,6.3-22.1,16.8-23.6,29
				C381,385.6,506.2,479.8,506.2,479.8z"/>
			<path class="st1" d="M417.7,330.1L538.3,450c22.4,3.1,33,6.3,41.9,14c17.2,14.9,28,46.7,106.5,127.4c7.4,7.6,14.9,14.7,22.7,21.4
				C800.5,691.7,913.9,712.6,960,718c13.3,1.5,21,1.8,21,1.8s0-41.7-52.5-87.1c-23.9-20.7-44.9-37.2-60.4-50.7
				c-18.6-16.2-29.4-27.9-27.8-37c2.9-16.7-29.1-66.8-29.1-66.8c12.3-41.3-42.9-95.5-70.7-119.6c-9.1-7.9-15.2-12.5-15.2-12.5
				l-26.2,30.2c-36.4-1.6-66.4-17.7-90.3-38.4c-47.8-41.4-71-101.4-71-101.4c-78.8,3.8-124.7,89-124.7,89L417.7,330.1z M704.4,432.2
				l46.3-15.6c3.3-1.1,6.8-0.9,9.8,0.7c3.1,1.5,5.4,4.2,6.5,7.4l6.4,19c2.7-0.3,5.3,1.2,6.2,3.9c0.9,2.7-0.3,5.4-2.6,6.8l6.4,19
				c2.3,6.7-1.4,14.1-8.1,16.3l-46.2,15.6c-3.3,1.1-6.8,0.9-9.8-0.7c-1-0.5-1.9-1.1-2.7-1.8c-1.7-1.5-3-3.4-3.8-5.6l5.6-1.9l5.6-1.9
				c0.2,0.5,0.9,0.8,1.4,0.7l46.2-15.6c0.6-0.2,0.9-0.8,0.7-1.4l-6.3-18.7l-19.7,6.6c-2.1,0.7-4.2,0.2-5.8-1.1
				c-0.8-0.7-1.4-1.5-1.7-2.6c-1-3.1,0.6-6.4,3.7-7.5l19.7-6.7l-6.3-18.7l-1.4-0.7l-46.3,15.6c-0.6,0.2-0.9,0.8-0.7,1.4l-5.6,1.9
				l-5.6,1.9C694.1,441.8,697.7,434.4,704.4,432.2z"/>
		</g>
	</g>
</g>
</svg>
