<?xml version="1.0" encoding="utf-8"?>
<!-- Generator: Adobe Illustrator 22.1.0, SVG Export Plug-In . SVG Version: 6.00 Build 0)  -->
<svg version="1.1" xmlns="http://www.w3.org/2000/svg" xmlns:xlink="http://www.w3.org/1999/xlink" x="0px" y="0px"
	 viewBox="0 0 1417.3 1417.3" style="enable-background:new 0 0 1417.3 1417.3;" xml:space="preserve">
<style type="text/css">
	.st1{fill:#32325d;}
</style>
<g id="Layer_2">
	<path class="st1" d="M908.1,493.1h-19V659c0,20.1-13.1,36.7-30.1,39.6v0.5l49.1,0.6c38.4,0,69.5,34.8,70.5,78h0V571.8
		C978.6,528.9,947,493.1,908.1,493.1z"/>
	<path class="st1" d="M788.3,411.9v114.6c0,0,63.3-44.4,100.8-4.3L788.3,411.9z"/>
	<path class="st1" d="M908.1,481.8h-8.2v-29.3c0-28-20.6-50.8-45.9-50.8l-333.5-2.3c-44.8,0-81.3,40.7-81.3,90.8
		c0,0,0,206.7,0,206.9c0.2,22.5,7.8,43.9,21.4,60.4c5.4,6.5,11.5,12.1,18.1,16.5c-3.1,1.6-6.2,3.6-9.2,5.9
		c-20.6,15.6-31,41.4-31,76.8c0,50,36.5,90.8,81.2,90.8l388.4,2.9c0,0,0.1,0,0.1,0c25.4,0,46-22.8,46-50.8c0-17.2-6-29.2-14.1-37.1
		c29-13.9,49.3-46.1,49.3-83.4c0-0.5,0-207.7,0-207.7C989.4,521.9,952.9,481.8,908.1,481.8z M849.4,494.6
		C849.4,494.6,849.3,494.6,849.4,494.6c-19.2,0-37.6,7-50.3,13.3v-68.3L849.4,494.6z M878.4,452.5v41.2L815.9,423l37.9,0.3
		C867.4,423.3,878.4,436.4,878.4,452.5z M460.7,490.2c0-38.2,26.8-69.2,59.7-69.2l257.1,1.7v103.7c0,4,2.2,7.7,5.8,9.6
		c1.6,0.8,3.3,1.2,5,1.2c2.2,0,4.3-0.7,6.2-1.9c0.3-0.2,27.6-19.1,54.9-19.1c11.6,0,21.2,3.4,29,10.5v88.8
		c-7.1-4.9-15.5-7.8-24.4-7.8l-333.5-2.3c-23.6,0-44.9,11.3-59.8,29.3L460.7,490.2L460.7,490.2z M910.9,848.1
		c-0.6-0.1-359.9-0.2-359.9-0.2c-5.9,0-10.8,4.8-10.8,10.8c0,5.9,4.8,10.8,10.8,10.8c0,0,355.9,0.2,356.4,0.2
		c0.1,0,6.5,0.6,12.7,4.4c8.4,5.1,12.5,13.4,12.5,25.5c0,16.1-11,29.2-24.5,29.2l-388.4-2.9c-32.9,0-59.8-31-59.8-69.2
		c0-60.2,34.1-69.8,54.7-70c1.9,0.1,376.9-0.1,376.9-0.1c5.9,0,10.8-4.8,10.8-10.8c0-5.9-4.8-10.8-10.8-10.8c0,0-373.9,0.1-376,0.1
		c-30.7-2.9-54.8-32.9-54.9-68.7c0.1-38,26.9-68.9,59.7-68.9l333.5,2.3c13.4,0,24.4,13,24.5,29c-0.1,3.1-1.3,29.7-21,29.7
		c0,0-306.3-0.4-306.3-0.4c-5.9,0-10.8,4.8-10.8,10.8s4.8,10.8,10.8,10.8c0,0,359.1,0.3,360.1,0.4c30.8,1.8,55.9,31.3,56.7,67.4
		c0,0,0,0,0,0.1c0,0.6,0,1.1,0,1.7C967.8,816.1,942.5,846.4,910.9,848.1z M967.8,717.5c-13-35.3-76.5-29.4-76.5-29.4
		c5.3-8.1,8.4-18.1,8.5-28.8c0-0.1,0-155.9,0-155.9h8.2c32.9,0,59.8,30.5,59.8,68L967.8,717.5L967.8,717.5z"/>
</g>
</svg>
