<?xml version="1.0" encoding="utf-8"?>
<!-- Generator: Adobe Illustrator 22.1.0, SVG Export Plug-In . SVG Version: 6.00 Build 0)  -->
<svg version="1.1" xmlns="http://www.w3.org/2000/svg" xmlns:xlink="http://www.w3.org/1999/xlink" x="0px" y="0px"
	 viewBox="0 0 1417.3 1417.3" style="enable-background:new 0 0 1417.3 1417.3;" xml:space="preserve">
<style type="text/css">
	.st1{fill:#32325d;}
</style>
<g id="Layer_1">
	<g>
		<path class="st1" d="M590.3,855.5c-5.4-0.9-54.6-9.5-103.7-47.1c-18.9-14.4-22.5-41.5-8-60.4c14.4-18.9,41.5-22.5,60.4-8
			c32,24.5,64.9,30.5,65.3,30.5l-0.3-0.1L590.3,855.5z"/>
		<path class="st1" d="M835.2,855.5c5.4-0.9,54.6-9.5,103.7-47.1c18.9-14.4,22.5-41.5,8-60.4c-14.4-18.9-41.5-22.5-60.4-8
			c-32,24.5-64.9,30.5-65.3,30.5l0.3-0.1L835.2,855.5z"/>
	</g>
	<path class="st1" d="M517.9,250.8c-46.7,0-84.5,37.8-84.5,84.5s37.8,84.5,84.5,84.5s84.5-37.8,84.5-84.5S564.5,250.8,517.9,250.8z
		 M517.9,379c-24.2,0-43.7-19.6-43.7-43.7c0-24.2,19.6-43.7,43.7-43.7s43.7,19.6,43.7,43.7C561.6,359.4,542,379,517.9,379z"/>
	<path class="st1" d="M907.6,250.8c-46.7,0-84.5,37.8-84.5,84.5s37.8,84.5,84.5,84.5s84.5-37.8,84.5-84.5S954.3,250.8,907.6,250.8z
		 M907.6,379c-24.2,0-43.7-19.6-43.7-43.7c0-24.2,19.6-43.7,43.7-43.7s43.7,19.6,43.7,43.7C951.3,359.4,931.8,379,907.6,379z"/>
	<g>
		<path class="st1" d="M750.3,454.7c-2.9,18.1-18.6,32-37.6,32c-19,0-34.7-13.9-37.6-32c11.8-4,24.5-6.1,37.6-6.1
			C725.9,448.6,738.5,450.7,750.3,454.7z"/>
		<path class="st1" d="M712.7,542.5c-17.6,0-34.1-7.3-45.3-20.1c-4.2-4.8-3.7-12.1,1.1-16.3c4.8-4.2,12.1-3.7,16.3,1.1
			c6.8,7.8,17,12.3,27.9,12.3c10.9,0,21.1-4.5,27.9-12.3c4.2-4.8,11.5-5.3,16.3-1.1c4.8,4.2,5.3,11.5,1.1,16.3
			C746.8,535.1,730.3,542.5,712.7,542.5z"/>
	</g>
	<g>
		<path class="st1" d="M621.7,894.4c23.4,23.4,30,67.9,6.6,91.3c-23.4,23.4-67.9,16.7-91.3-6.6s-23.4-61.3,0-84.7
			S598.3,871,621.7,894.4z"/>
		<path class="st1" d="M803.8,894.4c-23.4,23.4-30,67.9-6.6,91.3c23.4,23.4,67.9,16.7,91.3-6.6c23.4-23.4,23.4-61.3,0-84.7
			C865.1,871,827.2,871,803.8,894.4z"/>
	</g>
	<path class="st1" d="M712.7,244c-140.1,0-253.6,113.6-253.6,253.6c0,105.2,64.1,195.5,155.3,233.9c12.4-44.4,70.7-0.4,70.7-0.4v0
		c4.6-7,12.6-11.7,21.6-11.7h11.9c9,0,17,4.6,21.6,11.7v0c0,0,58.3-44,70.7,0.4c91.3-38.4,155.3-128.7,155.3-233.9
		C966.4,357.5,852.8,244,712.7,244z M585.1,472.9c-6.4,0-11.5-5.2-11.5-11.5v-23.6c0-6.4,5.2-11.5,11.5-11.5s11.5,5.2,11.5,11.5
		v23.6C596.7,467.7,591.5,472.9,585.1,472.9z M712.7,684.5c-65.1,0-117.9-52.8-117.9-117.9c0-52,33.6-96.2,80.4-111.8l75.2,0
		c46.7,15.7,80.4,59.8,80.4,111.8C830.7,631.7,777.9,684.5,712.7,684.5z M851.9,461.3c0,6.4-5.2,11.5-11.5,11.5
		c-6.4,0-11.5-5.2-11.5-11.5v-23.6c0-6.4,5.2-11.5,11.5-11.5c6.4,0,11.5,5.2,11.5,11.5V461.3z"/>
	<g>
		<path class="st1" d="M665,719c11.4,5.5,20.2,12.1,20.2,12.1v0c4.6-7,12.6-11.7,21.6-11.7h11.9c9,0,17,4.6,21.6,11.7v0
			c0,0,8.8-6.6,20.2-12.1H665z"/>
		<path class="st1" d="M864.3,759.9c-13.5-25.9-27.4-41-27.4-41h-32.2c5.3,6,8.7,16.1,8.7,32.3c0,75.3-73,20.2-73,20.2v0
			c-4.6,7-12.6,11.7-21.6,11.7h-11.9c-9,0-17-4.6-21.6-11.7v0c0,0-73,55.1-73-20.2c0-16.2,3.4-26.3,8.7-32.3H589
			c0,0-15.6,16.9-29.8,45.7c-53.9,108.9,22.2,238.1,143.6,243c3.3,0.1,6.7,0.2,10.2,0.2c1.3,0,2.6,0,3.8,0
			C843.3,1005.9,922.9,872.1,864.3,759.9z"/>
	</g>
</g>
</svg>
